<?xml version="1.0" encoding="utf-8"?>
<!-- Generator: Adobe Illustrator 15.0.0, SVG Export Plug-In . SVG Version: 6.00 Build 0)  -->
<!DOCTYPE svg PUBLIC "-//W3C//DTD SVG 1.1//EN" "http://www.w3.org/Graphics/SVG/1.1/DTD/svg11.dtd">
<svg version="1.1" id="Ebene_1" xmlns="http://www.w3.org/2000/svg" xmlns:xlink="http://www.w3.org/1999/xlink" x="0px" y="0px"
	 width="144px" height="144px" viewBox="0 0 144 144" enable-background="new 0 0 144 144" xml:space="preserve">
<desc  version="4.6" gridStep="36" showGrid="yes" snapToGrid="no" codePlatform="0" iVinci="yes"></desc>
<g id="Layer1">
	<g id="Shape1">
		
			<desc  text="" type="0" bounding="rect(-69.8901,-62.1942,139.78,124.388)" basicInfo-basicType="2" basicInfo-roundedRectRadius="15" shapeID="1" basicInfo-polygonSides="6" basicInfo-starPoints="5" font-familyName="Helvetica" font-underline="0" font-pixelSize="20" font-bold="0" markerStart="0" font-alignment="1" strokeStyle="0" shadowOffsetX="0" markerEnd="0" shadowEnabled="0" shadowOpacity="160" shadowOffsetY="2" blurRadius="4" shadowBlur="4" blurEnabled="0" transform="matrix(1.03019,0,0,1.15766,72,72)" pers-center="0,0" pers-size="0,0" pers-start="0,0" pers-end="0,0" locked="0" mesh="" flag="">
			</desc>
		<path id="shapePath1" fill="#0099CC" d="M0,17.365C0,7.774,6.918,0,15.453,0h113.094C137.082,0,144,7.774,144,17.365v109.27
			c0,9.59-6.918,17.365-15.453,17.365H15.453C6.918,144,0,136.225,0,126.635V17.365z"/>
	</g>
	<g id="Shape2">
		
			<desc  text="" type="0" bounding="rect(-67.3845,-58.7041,134.769,117.408)" basicInfo-basicType="2" basicInfo-roundedRectRadius="15" shapeID="2" basicInfo-polygonSides="6" basicInfo-starPoints="5" font-familyName="Helvetica" font-underline="0" font-pixelSize="20" font-bold="0" markerStart="0" font-alignment="1" strokeStyle="0" shadowOffsetX="0" markerEnd="0" shadowEnabled="0" shadowOpacity="160" shadowOffsetY="2" blurRadius="4" shadowBlur="4" blurEnabled="0" transform="matrix(1,0,0,1,72.3063,63.626)" pers-center="0,0" pers-size="0,0" pers-start="0,0" pers-end="0,0" locked="0" mesh="" flag="">
			</desc>
		<path id="shapePath2" fill="#0099CC" d="M4.922,19.922c0-8.284,6.716-15,15-15h104.77c8.283,0,15,6.716,15,15v87.408
			c0,8.284-6.717,15-15,15H19.922c-8.284,0-15-6.716-15-15V19.922z"/>
	</g>
	<g id="Shape3">
		
			<desc  text="" type="0" bounding="rect(-66.4487,-66.4355,132.897,132.871)" basicInfo-basicType="2" basicInfo-roundedRectRadius="11" shapeID="3" basicInfo-polygonSides="6" basicInfo-starPoints="5" font-familyName="Helvetica" font-underline="0" font-pixelSize="20" font-bold="0" markerStart="0" font-alignment="1" strokeStyle="0" shadowOffsetX="0" markerEnd="0" shadowEnabled="0" shadowOpacity="160" shadowOffsetY="2" blurRadius="4" shadowBlur="4" blurEnabled="0" transform="matrix(0.909643,0,0,0.917841,71.4542,71.3612)" pers-center="0,0" pers-size="0,0" pers-start="0,0" pers-end="0,0" locked="0" mesh="" flag="">
			</desc>
		<path id="shapePath3" fill="#FFFFFF" d="M11.01,20.48c0-5.576,4.479-10.097,10.006-10.097h100.877
			c5.526,0,10.006,4.521,10.006,10.097v101.762c0,5.576-4.479,10.096-10.006,10.096H21.016c-5.526,0-10.006-4.52-10.006-10.096
			V20.48z"/>
	</g>
</g>
<g id="Layer2">
	<g id="Shape4">
		
			<desc  text="" type="0" bounding="rect(-18.0137,-2.40183,36.0274,4.80366)" basicInfo-basicType="2" basicInfo-roundedRectRadius="1" shapeID="4" basicInfo-polygonSides="6" basicInfo-starPoints="5" font-familyName="Helvetica" font-underline="0" font-pixelSize="20" font-bold="0" markerStart="0" font-alignment="1" strokeStyle="0" shadowOffsetX="0" markerEnd="0" shadowEnabled="0" shadowOpacity="160" shadowOffsetY="2" blurRadius="4" shadowBlur="4" blurEnabled="0" transform="matrix(1.37373,0,0,2.68269,96.746,41.8147)" pers-center="0,0" pers-size="0,0" pers-start="0,0" pers-end="0,0" locked="0" mesh="" flag="">
			</desc>
		<path id="shapePath4" fill="#0099CC" d="M72,38.054c0-1.482,0.615-2.683,1.373-2.683h46.745c0.759,0,1.374,1.201,1.374,2.683
			v7.521c0,1.482-0.615,2.683-1.374,2.683H73.373c-0.758,0-1.373-1.201-1.373-2.683V38.054z"/>
	</g>
	<g id="Shape5">
		
			<desc  text="" type="0" bounding="rect(-18.0137,-2.40183,36.0274,4.80366)" basicInfo-basicType="2" basicInfo-roundedRectRadius="1" shapeID="5" basicInfo-polygonSides="6" basicInfo-starPoints="5" font-familyName="Helvetica" font-underline="0" font-pixelSize="20" font-bold="0" markerStart="0" font-alignment="1" strokeStyle="0" shadowOffsetX="0" markerEnd="0" shadowEnabled="0" shadowOpacity="160" shadowOffsetY="2" blurRadius="4" shadowBlur="4" blurEnabled="0" transform="matrix(1.37373,0,0,2.58745,72,72)" pers-center="0,0" pers-size="0,0" pers-start="0,0" pers-end="0,0" locked="0" mesh="" flag="">
			</desc>
		<path id="shapePath5" fill="#0099CC" d="M47.254,68.373c0-1.429,0.615-2.588,1.374-2.588h46.744c0.759,0,1.374,1.159,1.374,2.588
			v7.254c0,1.43-0.615,2.588-1.374,2.588H48.628c-0.759,0-1.374-1.158-1.374-2.588V68.373z"/>
	</g>
	<g id="Shape6">
		
			<desc  text="" type="0" bounding="rect(-18.0137,-2.40183,36.0274,4.80366)" basicInfo-basicType="2" basicInfo-roundedRectRadius="1" shapeID="6" basicInfo-polygonSides="6" basicInfo-starPoints="5" font-familyName="Helvetica" font-underline="0" font-pixelSize="20" font-bold="0" markerStart="0" font-alignment="1" strokeStyle="0" shadowOffsetX="0" markerEnd="0" shadowEnabled="0" shadowOpacity="160" shadowOffsetY="2" blurRadius="4" shadowBlur="4" blurEnabled="0" transform="matrix(1.37373,0,0,2.58745,47.254,104.103)" pers-center="0,0" pers-size="0,0" pers-start="0,0" pers-end="0,0" locked="0" mesh="" flag="">
			</desc>
		<path id="shapePath6" fill="#0099CC" d="M22.508,100.477c0-1.43,0.615-2.588,1.374-2.588h46.745c0.758,0,1.374,1.158,1.374,2.588
			v7.254c0,1.429-0.615,2.588-1.374,2.588H23.882c-0.759,0-1.374-1.159-1.374-2.588V100.477z"/>
	</g>
</g>
</svg>
